<svg width="31" height="31" viewBox="0 0 31 31" fill="none" xmlns="http://www.w3.org/2000/svg">
<path d="M15.4993 0C6.94006 0 0 6.94006 0 15.4993C0 24.0586 6.94006 31 15.4993 31C24.0586 31 31 24.0586 31 15.4993C31 6.94006 24.0586 0 15.4993 0ZM18.726 24.0219C17.9282 24.3368 17.2931 24.5756 16.8168 24.7409C16.3418 24.9063 15.7893 24.989 15.1608 24.989C14.195 24.989 13.4432 24.7528 12.9078 24.2817C12.3724 23.8106 12.1061 23.2136 12.1061 22.488C12.1061 22.2058 12.1258 21.9172 12.1651 21.6232C12.2058 21.3293 12.2701 20.9986 12.358 20.6273L13.3566 17.1002C13.4445 16.7616 13.5206 16.4402 13.581 16.141C13.6413 15.8392 13.6702 15.5623 13.6702 15.3104C13.6702 14.8616 13.577 14.5467 13.392 14.3696C13.2044 14.1924 12.8514 14.1058 12.3252 14.1058C12.068 14.1058 11.803 14.1439 11.5313 14.2239C11.2623 14.3066 11.0288 14.3814 10.8372 14.4549L11.101 13.3684C11.7544 13.102 12.3803 12.8737 12.9774 12.6847C13.5744 12.4932 14.1386 12.3987 14.6701 12.3987C15.6292 12.3987 16.3693 12.6323 16.8902 13.0941C17.4085 13.5573 17.6697 14.1596 17.6697 14.8997C17.6697 15.0532 17.6513 15.3235 17.6159 15.7093C17.5804 16.0964 17.5135 16.4494 17.4164 16.7735L16.4231 20.2901C16.3418 20.5722 16.2696 20.895 16.204 21.2558C16.1397 21.6167 16.1082 21.8922 16.1082 22.0772C16.1082 22.5444 16.2119 22.8632 16.4218 23.0325C16.6291 23.2018 16.9926 23.2871 17.507 23.2871C17.7497 23.2871 18.0213 23.2438 18.3284 23.1598C18.6328 23.0758 18.8532 23.001 18.9923 22.9367L18.726 24.0219ZM18.5501 9.7481C18.0869 10.1785 17.5293 10.3937 16.8771 10.3937C16.2263 10.3937 15.6647 10.1785 15.1975 9.7481C14.733 9.31771 14.4982 8.79416 14.4982 8.18269C14.4982 7.57253 14.7343 7.04766 15.1975 6.61333C15.6647 6.17769 16.2263 5.96118 16.8771 5.96118C17.5293 5.96118 18.0883 6.17769 18.5501 6.61333C19.0133 7.04766 19.2456 7.57253 19.2456 8.18269C19.2456 8.79547 19.0133 9.31771 18.5501 9.7481Z" fill="white"/>
</svg>
