<svg width="164" height="62" viewBox="0 0 164 62" fill="none" xmlns="http://www.w3.org/2000/svg">
<path d="M3.71 12.1C3.71 10.91 3.54667 10.035 3.22 9.475C2.89333 8.89167 2.24 8.6 1.26 8.6H0.56V7.9H9.66C12.2033 7.9 14.4083 8.32 16.275 9.16C18.165 10 19.11 11.6217 19.11 14.025C19.11 15.1217 18.7367 16.1133 17.99 17C17.2433 17.8867 16.1 18.5867 14.56 19.1C16.7067 19.45 18.2 20.0917 19.04 21.025C19.9033 21.935 20.335 23.16 20.335 24.7C20.335 27.0567 19.4017 28.7017 17.535 29.635C15.6917 30.545 13.4167 31 10.71 31H3.71V12.1ZM10.185 18.575C11.1417 18.575 12.04 18.4 12.88 18.05C13.7433 17.6767 14.4433 17.14 14.98 16.44C15.5167 15.7167 15.785 14.8533 15.785 13.85C15.785 12.8 15.47 11.925 14.84 11.225C14.21 10.5017 13.405 9.97667 12.425 9.65C11.4683 9.3 10.4883 9.125 9.485 9.125C8.66833 9.125 7.79333 9.24167 6.86 9.475V18.575H10.185ZM10.185 29.775C12.3083 29.775 13.9417 29.355 15.085 28.515C16.2517 27.675 16.835 26.4617 16.835 24.875C16.835 23.2883 16.2633 22.075 15.12 21.235C14 20.395 12.355 19.975 10.185 19.975H6.86V29.285C7.98 29.6117 9.08833 29.775 10.185 29.775ZM28.2125 31.35C27.4658 31.35 26.7075 31.1983 25.9375 30.895C25.1675 30.5683 24.5025 30.0433 23.9425 29.32C23.4058 28.5967 23.1375 27.64 23.1375 26.45C23.1375 24.6767 23.9541 23.4167 25.5875 22.67C27.2441 21.9233 29.4025 21.55 32.0625 21.55H33.1125C33.1125 19.2633 32.7975 17.7 32.1675 16.86C31.5375 16.02 30.6275 15.6 29.4375 15.6C28.3875 15.6 27.5475 15.8217 26.9175 16.265C26.2875 16.7083 25.8441 17.4783 25.5875 18.575H24.0125C24.0125 17.7817 24.0591 17.1633 24.1525 16.72C24.2458 16.2533 24.4908 15.8217 24.8875 15.425C25.3075 15.005 25.9958 14.7017 26.9525 14.515C27.9325 14.305 28.9941 14.2 30.1375 14.2C32.0275 14.2 33.5208 14.7133 34.6175 15.74C35.7141 16.7433 36.2625 18.68 36.2625 21.55V31H34.5125L33.2875 29.425H33.1125C32.6925 29.9617 32.0741 30.4167 31.2575 30.79C30.4408 31.1633 29.4258 31.35 28.2125 31.35ZM29.7875 29.775C30.5575 29.775 31.1991 29.5883 31.7125 29.215C32.2258 28.8417 32.6925 28.3283 33.1125 27.675V22.95H32.0625C30.3358 22.95 28.9708 23.2767 27.9675 23.93C26.9641 24.56 26.4625 25.4 26.4625 26.45C26.4625 27.5233 26.7775 28.3517 27.4075 28.935C28.0608 29.495 28.8541 29.775 29.7875 29.775ZM41.283 12.1C41.283 10.91 41.1197 10.035 40.793 9.475C40.4664 8.89167 39.813 8.6 38.833 8.6H38.133V7.9H41.283C42.1464 7.9 42.788 8.01667 43.208 8.25C43.6514 8.46 43.9664 8.85667 44.153 9.44C44.3397 10.0233 44.433 10.91 44.433 12.1V31H41.283V12.1ZM51.4746 12.45C50.9379 12.45 50.4713 12.2283 50.0746 11.785C49.7013 11.3417 49.5146 10.8167 49.5146 10.21C49.5146 9.72 49.6546 9.335 49.9346 9.055C50.2379 8.775 50.6346 8.635 51.1246 8.635C51.6613 8.635 52.1163 8.85667 52.4896 9.3C52.8863 9.74333 53.0846 10.2683 53.0846 10.875C53.0846 11.365 52.9329 11.75 52.6296 12.03C52.3496 12.31 51.9646 12.45 51.4746 12.45ZM50.1446 18.75C50.1446 17.56 49.9813 16.685 49.6546 16.125C49.3279 15.5417 48.6746 15.25 47.6946 15.25H46.9946V14.55H50.1446C51.0079 14.55 51.6496 14.6667 52.0696 14.9C52.5129 15.11 52.8279 15.5067 53.0146 16.09C53.2013 16.6733 53.2946 17.56 53.2946 18.75V31H50.1446V18.75ZM71.0339 31.35C69.0505 31.35 67.3589 30.4167 65.9589 28.55L61.7589 22.95V31H58.6089V12.1C58.6089 10.91 58.4455 10.035 58.1189 9.475C57.7922 8.89167 57.1389 8.6 56.1589 8.6H55.4589V7.9H58.6089C59.4722 7.9 60.1139 8.01667 60.5339 8.25C60.9772 8.46 61.2922 8.85667 61.4789 9.44C61.6655 10.0233 61.7589 10.91 61.7589 12.1V22.425L66.1339 16.825C66.7405 16.0783 67.3822 15.5183 68.0589 15.145C68.7355 14.7483 69.6105 14.55 70.6839 14.55H71.7339V15.425C71.1039 15.425 70.4972 15.5533 69.9139 15.81C69.3305 16.0667 68.8289 16.4633 68.4089 17L64.5589 21.9L68.9339 27.5C69.6105 28.3867 70.2405 29.0517 70.8239 29.495C71.4305 29.9383 72.0839 30.2183 72.7839 30.335V31C72.2705 31.2333 71.6872 31.35 71.0339 31.35ZM76.1212 18.75C76.1212 17.56 75.9578 16.685 75.6312 16.125C75.3045 15.5417 74.6512 15.25 73.6712 15.25H72.9712V14.55H76.1212C77.0078 14.55 77.6728 14.6783 78.1162 14.935C78.5828 15.1683 78.9095 15.565 79.0962 16.125H79.2712C79.6912 15.5883 80.2862 15.1333 81.0562 14.76C81.8262 14.3867 82.8062 14.2 83.9962 14.2C86.0028 14.2 87.5545 15.0167 88.6512 16.65C89.7478 18.26 90.2962 20.3017 90.2962 22.775C90.2962 25.2717 89.7245 27.325 88.5812 28.935C87.4612 30.545 85.8162 31.35 83.6462 31.35C82.7595 31.35 81.9778 31.2567 81.3012 31.07C80.6245 30.8833 79.9478 30.6267 79.2712 30.3V37.65H76.1212V18.75ZM82.5962 29.95C84.0895 29.95 85.1862 29.2967 85.8862 27.99C86.6095 26.6833 86.9712 24.945 86.9712 22.775C86.9712 20.6283 86.6328 18.9017 85.9562 17.595C85.2795 16.265 84.2762 15.6 82.9462 15.6C81.3828 15.6 80.1578 16.3 79.2712 17.7V28.9C79.9712 29.2267 80.5778 29.4833 81.0912 29.67C81.6045 29.8567 82.1062 29.95 82.5962 29.95ZM98.3492 31.35C97.6025 31.35 96.8442 31.1983 96.0742 30.895C95.3042 30.5683 94.6392 30.0433 94.0792 29.32C93.5425 28.5967 93.2742 27.64 93.2742 26.45C93.2742 24.6767 94.0908 23.4167 95.7242 22.67C97.3808 21.9233 99.5392 21.55 102.199 21.55H103.249C103.249 19.2633 102.934 17.7 102.304 16.86C101.674 16.02 100.764 15.6 99.5742 15.6C98.5242 15.6 97.6842 15.8217 97.0542 16.265C96.4242 16.7083 95.9808 17.4783 95.7242 18.575H94.1492C94.1492 17.7817 94.1958 17.1633 94.2892 16.72C94.3825 16.2533 94.6275 15.8217 95.0242 15.425C95.4442 15.005 96.1325 14.7017 97.0892 14.515C98.0692 14.305 99.1308 14.2 100.274 14.2C102.164 14.2 103.658 14.7133 104.754 15.74C105.851 16.7433 106.399 18.68 106.399 21.55V31H104.649L103.424 29.425H103.249C102.829 29.9617 102.211 30.4167 101.394 30.79C100.578 31.1633 99.5625 31.35 98.3492 31.35ZM99.9242 29.775C100.694 29.775 101.336 29.5883 101.849 29.215C102.363 28.8417 102.829 28.3283 103.249 27.675V22.95H102.199C100.473 22.95 99.1075 23.2767 98.1042 23.93C97.1008 24.56 96.5992 25.4 96.5992 26.45C96.5992 27.5233 96.9142 28.3517 97.5442 28.935C98.1975 29.495 98.9908 29.775 99.9242 29.775ZM111.805 18.75C111.805 17.56 111.641 16.685 111.315 16.125C110.988 15.5417 110.335 15.25 109.355 15.25H108.655V14.55H111.805C112.691 14.55 113.356 14.6783 113.8 14.935C114.266 15.1683 114.593 15.565 114.78 16.125H114.955C115.375 15.5883 115.97 15.1333 116.74 14.76C117.51 14.3867 118.49 14.2 119.68 14.2C121.686 14.2 123.238 15.0167 124.335 16.65C125.431 18.26 125.98 20.3017 125.98 22.775C125.98 25.2717 125.408 27.325 124.265 28.935C123.145 30.545 121.5 31.35 119.33 31.35C118.443 31.35 117.661 31.2567 116.985 31.07C116.308 30.8833 115.631 30.6267 114.955 30.3V37.65H111.805V18.75ZM118.28 29.95C119.773 29.95 120.87 29.2967 121.57 27.99C122.293 26.6833 122.655 24.945 122.655 22.775C122.655 20.6283 122.316 18.9017 121.64 17.595C120.963 16.265 119.96 15.6 118.63 15.6C117.066 15.6 115.841 16.3 114.955 17.7V28.9C115.655 29.2267 116.261 29.4833 116.775 29.67C117.288 29.8567 117.79 29.95 118.28 29.95ZM134.033 31.35C133.286 31.35 132.528 31.1983 131.758 30.895C130.988 30.5683 130.323 30.0433 129.763 29.32C129.226 28.5967 128.958 27.64 128.958 26.45C128.958 24.6767 129.774 23.4167 131.408 22.67C133.064 21.9233 135.223 21.55 137.883 21.55H138.933C138.933 19.2633 138.618 17.7 137.988 16.86C137.358 16.02 136.448 15.6 135.258 15.6C134.208 15.6 133.368 15.8217 132.738 16.265C132.108 16.7083 131.664 17.4783 131.408 18.575H129.833C129.833 17.7817 129.879 17.1633 129.973 16.72C130.066 16.2533 130.311 15.8217 130.708 15.425C131.128 15.005 131.816 14.7017 132.773 14.515C133.753 14.305 134.814 14.2 135.958 14.2C137.848 14.2 139.341 14.7133 140.438 15.74C141.534 16.7433 142.083 18.68 142.083 21.55V31H140.333L139.108 29.425H138.933C138.513 29.9617 137.894 30.4167 137.078 30.79C136.261 31.1633 135.246 31.35 134.033 31.35ZM135.608 29.775C136.378 29.775 137.019 29.5883 137.533 29.215C138.046 28.8417 138.513 28.3283 138.933 27.675V22.95H137.883C136.156 22.95 134.791 23.2767 133.788 23.93C132.784 24.56 132.283 25.4 132.283 26.45C132.283 27.5233 132.598 28.3517 133.228 28.935C133.881 29.495 134.674 29.775 135.608 29.775ZM147.488 18.75C147.488 17.56 147.325 16.685 146.998 16.125C146.672 15.5417 146.018 15.25 145.038 15.25H144.338V14.55H147.488C148.352 14.55 149.005 14.6667 149.448 14.9C149.915 15.1333 150.253 15.4833 150.463 15.95H150.638C151.128 15.46 151.758 15.0517 152.528 14.725C153.322 14.375 154.208 14.2 155.188 14.2C156.938 14.2 158.362 14.6667 159.458 15.6C160.578 16.5333 161.138 18.1667 161.138 20.5V31H157.988V20.5C157.988 18.8667 157.615 17.6767 156.868 16.93C156.145 16.16 155.235 15.775 154.138 15.775C152.902 15.775 151.735 16.3933 150.638 17.63V31H147.488V18.75Z" fill="white"/>
<path d="M92.71 39.1C92.71 37.91 92.5467 37.035 92.22 36.475C91.8933 35.8917 91.24 35.6 90.26 35.6H89.56V34.9H104.47C106.453 34.9 107.445 35.8333 107.445 37.7V40.325H106.745C106.745 37.6417 105.287 36.3 102.37 36.3H95.86V45.4H105.31V46.8H95.86V56.6H101.985C103.595 56.6 104.855 56.3083 105.765 55.725C106.675 55.1417 107.398 54.15 107.935 52.75L108.635 52.925L107.41 56.25C106.99 57.4167 106.115 58 104.785 58H92.71V39.1ZM112.69 45.75C112.69 44.56 112.526 43.685 112.2 43.125C111.873 42.5417 111.22 42.25 110.24 42.25H109.54V41.55H112.69C113.553 41.55 114.206 41.6667 114.65 41.9C115.116 42.1333 115.455 42.4833 115.665 42.95H115.84C116.33 42.46 116.96 42.0517 117.73 41.725C118.523 41.375 119.41 41.2 120.39 41.2C122.14 41.2 123.563 41.6667 124.66 42.6C125.78 43.5333 126.34 45.1667 126.34 47.5V58H123.19V47.5C123.19 45.8667 122.816 44.6767 122.07 43.93C121.346 43.16 120.436 42.775 119.34 42.775C118.103 42.775 116.936 43.3933 115.84 44.63V58H112.69V45.75ZM135.123 58.35C134.376 58.35 133.618 58.1983 132.848 57.895C132.078 57.5683 131.413 57.0433 130.853 56.32C130.316 55.5967 130.048 54.64 130.048 53.45C130.048 51.6767 130.864 50.4167 132.498 49.67C134.154 48.9233 136.313 48.55 138.973 48.55H140.023C140.023 46.2633 139.708 44.7 139.078 43.86C138.448 43.02 137.538 42.6 136.348 42.6C135.298 42.6 134.458 42.8217 133.828 43.265C133.198 43.7083 132.754 44.4783 132.498 45.575H130.923C130.923 44.7817 130.969 44.1633 131.063 43.72C131.156 43.2533 131.401 42.8217 131.798 42.425C132.218 42.005 132.906 41.7017 133.863 41.515C134.843 41.305 135.904 41.2 137.048 41.2C138.938 41.2 140.431 41.7133 141.528 42.74C142.624 43.7433 143.173 45.68 143.173 48.55V58H141.423L140.198 56.425H140.023C139.603 56.9617 138.984 57.4167 138.168 57.79C137.351 58.1633 136.336 58.35 135.123 58.35ZM136.698 56.775C137.468 56.775 138.109 56.5883 138.623 56.215C139.136 55.8417 139.603 55.3283 140.023 54.675V49.95H138.973C137.246 49.95 135.881 50.2767 134.878 50.93C133.874 51.56 133.373 52.4 133.373 53.45C133.373 54.5233 133.688 55.3517 134.318 55.935C134.971 56.495 135.764 56.775 136.698 56.775ZM160.478 58.35C158.495 58.35 156.803 57.4167 155.403 55.55L151.203 49.95V58H148.053V39.1C148.053 37.91 147.89 37.035 147.563 36.475C147.237 35.8917 146.583 35.6 145.603 35.6H144.903V34.9H148.053C148.917 34.9 149.558 35.0167 149.978 35.25C150.422 35.46 150.737 35.8567 150.923 36.44C151.11 37.0233 151.203 37.91 151.203 39.1V49.425L155.578 43.825C156.185 43.0783 156.827 42.5183 157.503 42.145C158.18 41.7483 159.055 41.55 160.128 41.55H161.178V42.425C160.548 42.425 159.942 42.5533 159.358 42.81C158.775 43.0667 158.273 43.4633 157.853 44L154.003 48.9L158.378 54.5C159.055 55.3867 159.685 56.0517 160.268 56.495C160.875 56.9383 161.528 57.2183 162.228 57.335V58C161.715 58.2333 161.132 58.35 160.478 58.35Z" fill="#DB0707"/>
</svg>
