<svg width="161" height="69" viewBox="0 0 161 69" fill="none" xmlns="http://www.w3.org/2000/svg">
<path d="M7.525 32.42C5.58833 32.42 4.2 31.965 3.36 31.055C2.52 30.1217 2.1 28.8967 2.1 27.38C2.1 26.9833 2.135 26.505 2.205 25.945C2.275 25.385 2.36833 24.7083 2.485 23.915C2.67167 22.7717 2.81167 21.7567 2.905 20.87C2.99833 19.96 3.045 18.9683 3.045 17.895C3.045 16.6583 3.01 15.655 2.94 14.885C2.54333 15.1183 2.25167 15.235 2.065 15.235C1.69167 15.235 1.505 14.815 1.505 13.975C1.505 13.3217 1.645 12.7733 1.925 12.33C2.22833 11.8633 2.71833 11.4317 3.395 11.035C4.07167 10.615 4.92333 10.2533 5.95 9.95C7 9.64667 8.12 9.495 9.31 9.495C11.2467 9.495 12.7167 9.93833 13.72 10.825C14.7233 11.7117 15.225 12.8783 15.225 14.325C15.225 15.2583 15.0267 16.1217 14.63 16.915C14.2333 17.7083 13.6733 18.4083 12.95 19.015C15.8667 19.4817 17.325 21.1617 17.325 24.055C17.325 25.6183 16.8817 27.0417 15.995 28.325C15.1083 29.6083 13.9067 30.6117 12.39 31.335C10.92 32.0583 9.29833 32.42 7.525 32.42ZM8.925 28.535C9.975 28.535 10.92 28.395 11.76 28.115C12.6233 27.8117 13.3117 27.38 13.825 26.82C14.3383 26.26 14.595 25.6067 14.595 24.86C14.595 23.9033 14.2567 23.2267 13.58 22.83C12.9033 22.4333 12.1217 22.235 11.235 22.235C10.8617 22.235 10.395 22.27 9.835 22.34C9.60167 22.3867 9.33333 22.41 9.03 22.41C8.51667 22.41 8.085 22.2 7.735 21.78C7.40833 21.36 7.245 20.835 7.245 20.205C7.245 19.7617 7.44333 19.4817 7.84 19.365C10.6867 18.6183 12.11 17.3233 12.11 15.48C12.11 14.01 11.095 13.275 9.065 13.275C8.31833 13.275 7.39667 13.4033 6.3 13.66C6.3 14.8033 6.24167 16.005 6.125 17.265C6.00833 18.5017 5.83333 19.7967 5.6 21.15C5.46 22.0833 5.34333 22.8767 5.25 23.53C5.18 24.16 5.145 24.6733 5.145 25.07C5.145 26.33 5.46 27.2283 6.09 27.765C6.72 28.2783 7.665 28.535 8.925 28.535ZM24.1612 32.455C22.7612 32.455 21.6295 32.0233 20.7662 31.16C19.9262 30.2733 19.5062 29.0133 19.5062 27.38C19.5062 26.2133 19.7279 25.0583 20.1712 23.915C20.6379 22.7483 21.3029 21.6983 22.1662 20.765C23.0295 19.8317 24.0679 19.085 25.2812 18.525C26.4945 17.965 27.8595 17.685 29.3762 17.685C30.7762 17.685 31.9662 17.93 32.9462 18.42C33.9495 18.8867 34.4512 19.5283 34.4512 20.345C34.4512 20.555 34.4279 20.835 34.3812 21.185C34.3345 21.5117 34.2762 21.78 34.2062 21.99C34.1362 22.1767 34.0312 22.3517 33.8912 22.515C33.7745 22.655 33.6112 22.725 33.4012 22.725C33.3079 22.725 33.1329 22.69 32.8762 22.62C32.7829 23.11 32.7129 23.5883 32.6662 24.055C32.6195 24.5217 32.5962 24.9883 32.5962 25.455C32.5962 26.3417 32.7245 27.135 32.9812 27.835C33.2612 28.5117 33.7979 28.9317 34.5912 29.095C34.8012 29.1417 34.9645 29.2117 35.0812 29.305C35.2212 29.3983 35.2912 29.5967 35.2912 29.9C35.2912 30.1567 35.2212 30.4833 35.0812 30.88C34.9645 31.2767 34.7195 31.6383 34.3462 31.965C33.9962 32.2683 33.4829 32.42 32.8062 32.42C31.8962 32.42 31.1962 32.0933 30.7062 31.44C30.2162 30.7633 29.9712 29.8067 29.9712 28.57C29.3412 29.7133 28.5362 30.6467 27.5562 31.37C26.5995 32.0933 25.4679 32.455 24.1612 32.455ZM25.2812 28.815C26.2145 28.815 27.0312 28.5233 27.7312 27.94C28.4545 27.3567 29.0145 26.6217 29.4112 25.735C29.6679 25.175 29.8662 24.5683 30.0062 23.915C30.1462 23.2383 30.2395 22.5733 30.2862 21.92C29.8895 21.7333 29.4345 21.5817 28.9212 21.465C28.4079 21.3483 27.8712 21.29 27.3112 21.29C25.8879 21.29 24.7095 21.71 23.7762 22.55C22.8662 23.39 22.4112 24.44 22.4112 25.7C22.4112 26.6333 22.6679 27.3917 23.1812 27.975C23.6945 28.535 24.3945 28.815 25.2812 28.815ZM40.0479 32.35C39.3713 32.35 38.8696 32.1633 38.5429 31.79C38.2163 31.4167 38.0529 30.7633 38.0529 29.83C38.0529 29.3867 38.0879 28.815 38.1579 28.115C38.2279 27.415 38.3096 26.6567 38.4029 25.84C38.5429 24.8367 38.6596 23.7867 38.7529 22.69C38.8696 21.5933 38.9279 20.5433 38.9279 19.54C38.9279 18.1167 38.8579 16.6467 38.7179 15.13C38.6013 13.59 38.2513 12.2483 37.6679 11.105C37.4579 10.6383 37.3529 10.3 37.3529 10.09C37.3529 9.78666 37.4813 9.495 37.7379 9.215C38.0179 8.935 38.3563 8.70167 38.7529 8.515C39.1496 8.305 39.5346 8.2 39.9079 8.2C40.5146 8.2 40.9696 8.48 41.2729 9.04C41.5763 9.57667 41.7746 10.3233 41.8679 11.28C41.9613 12.2133 42.0079 13.2867 42.0079 14.5C42.0079 16.3433 41.9263 17.9417 41.7629 19.295C41.6229 20.6483 41.4829 21.8383 41.3429 22.865C41.2496 23.5417 41.1563 24.1833 41.0629 24.79C40.9929 25.3967 40.9579 25.945 40.9579 26.435C40.9579 27.2517 41.0863 27.8467 41.3429 28.22C41.6229 28.57 42.0663 28.92 42.6729 29.27C42.8363 29.3633 42.9529 29.4567 43.0229 29.55C43.1163 29.62 43.1629 29.7367 43.1629 29.9C43.1629 30.0867 43.0696 30.3783 42.8829 30.775C42.6963 31.1717 42.3696 31.5333 41.9029 31.86C41.4596 32.1867 40.8413 32.35 40.0479 32.35ZM48.3618 14.605C47.7085 14.5817 47.1835 14.3833 46.7868 14.01C46.3901 13.6367 46.1918 13.1117 46.1918 12.435C46.2151 11.7117 46.4601 11.1283 46.9268 10.685C47.3935 10.2183 47.9885 9.99667 48.7118 10.02C49.3885 10.0433 49.9135 10.2417 50.2868 10.615C50.6835 10.9883 50.8701 11.5133 50.8468 12.19C50.8235 12.89 50.5901 13.4733 50.1468 13.94C49.7035 14.3833 49.1085 14.605 48.3618 14.605ZM48.3968 32.35C47.6968 32.35 47.1485 32.1633 46.7518 31.79C46.3551 31.3933 46.1568 30.7283 46.1568 29.795C46.1568 29.2583 46.2035 28.7333 46.2968 28.22C46.4135 27.7067 46.5418 27.205 46.6818 26.715C46.8451 26.2017 46.9735 25.6767 47.0668 25.14C47.1835 24.6033 47.2418 24.0317 47.2418 23.425C47.2418 23.005 47.1835 22.6083 47.0668 22.235C46.9501 21.8383 46.6935 21.5467 46.2968 21.36C45.9935 21.1967 45.7251 21.0333 45.4918 20.87C45.2818 20.6833 45.1768 20.45 45.1768 20.17C45.1768 19.8433 45.3285 19.4933 45.6318 19.12C45.9351 18.7467 46.3318 18.4317 46.8218 18.175C47.3351 17.895 47.8601 17.755 48.3968 17.755C48.9801 17.755 49.4001 17.9067 49.6568 18.21C49.9368 18.5133 50.1235 18.8983 50.2168 19.365C50.3101 19.8317 50.3568 20.31 50.3568 20.8C50.3568 21.5467 50.2985 22.2817 50.1818 23.005C50.0651 23.705 49.9485 24.3583 49.8318 24.965C49.7385 25.4083 49.6685 25.8167 49.6218 26.19C49.5751 26.5633 49.5518 26.9133 49.5518 27.24C49.5518 27.8233 49.6918 28.2667 49.9718 28.57C50.2518 28.85 50.6485 29.1183 51.1618 29.375C51.3718 29.4917 51.4768 29.6667 51.4768 29.9C51.4768 30.0867 51.3835 30.3783 51.1968 30.775C51.0101 31.1717 50.6835 31.5333 50.2168 31.86C49.7735 32.1867 49.1668 32.35 48.3968 32.35ZM55.4334 32.385C55.1768 32.385 54.9318 32.3033 54.6984 32.14C54.4651 32 54.3718 31.8017 54.4184 31.545C54.7684 29.6783 55.0601 27.7883 55.2934 25.875C55.5501 23.9383 55.6784 21.99 55.6784 20.03C55.6784 18.3033 55.6201 16.74 55.5034 15.34C55.3868 13.94 55.0134 12.5983 54.3834 11.315C54.2668 11.0583 54.1734 10.8367 54.1034 10.65C54.0334 10.4633 53.9984 10.2883 53.9984 10.125C53.9984 9.68167 54.2551 9.25 54.7684 8.83C55.2818 8.41 55.8301 8.2 56.4134 8.2C57.2534 8.2 57.8251 8.71333 58.1284 9.74C58.4318 10.7667 58.5834 12.2833 58.5834 14.29C58.5834 16.6933 58.4434 18.7933 58.1634 20.59C57.8834 22.3633 57.6384 23.7167 57.4284 24.65L57.5684 24.72C58.0351 23.5767 58.6301 22.48 59.3534 21.43C60.0768 20.3567 60.9051 19.47 61.8384 18.77C62.7951 18.07 63.8334 17.72 64.9534 17.72C66.0501 17.72 66.8901 18.0467 67.4734 18.7C68.0801 19.3533 68.3834 20.135 68.3834 21.045C68.3834 22.1183 67.9984 23.075 67.2284 23.915C66.4584 24.755 65.4551 25.455 64.2184 26.015C64.5218 26.8083 64.9534 27.4383 65.5134 27.905C66.0734 28.3483 66.7851 28.57 67.6484 28.57C67.9284 28.57 68.1618 28.5467 68.3484 28.5C68.6518 28.43 68.8034 28.7217 68.8034 29.375C68.8034 29.7483 68.7334 30.1683 68.5934 30.635C68.4534 31.1017 68.1734 31.51 67.7534 31.86C67.3568 32.1867 66.7501 32.35 65.9334 32.35C64.8368 32.35 63.9384 32.035 63.2384 31.405C62.5618 30.7517 62.0251 29.9583 61.6284 29.025C61.2551 28.0683 60.9634 27.1233 60.7534 26.19C60.5668 25.3267 60.8584 24.8717 61.6284 24.825C62.4451 24.7317 63.1334 24.4867 63.6934 24.09C64.2534 23.6933 64.5334 23.1683 64.5334 22.515C64.5334 21.7683 64.1718 21.395 63.4484 21.395C62.9818 21.395 62.5034 21.57 62.0134 21.92C61.5468 22.2467 61.1034 22.6433 60.6834 23.11C60.2868 23.5767 59.9601 24.0317 59.7034 24.475C59.3534 25.0817 59.0501 25.6767 58.7934 26.26C58.5368 26.8433 58.3268 27.4267 58.1634 28.01V29.41C58.1634 30.2733 57.9068 30.985 57.3934 31.545C56.9034 32.105 56.2501 32.385 55.4334 32.385ZM73.8084 41.66C73.1084 41.66 72.5601 41.4617 72.1634 41.065C71.7668 40.6917 71.5684 40.0033 71.5684 39C71.5684 38.3233 71.6384 37.4717 71.7784 36.445C71.9418 35.4183 72.1284 34.3333 72.3384 33.19C72.5018 32.28 72.6534 31.3233 72.7934 30.32C72.9568 29.3167 73.0851 28.3367 73.1784 27.38C73.2951 26.4 73.3534 25.525 73.3534 24.755C73.3534 23.8683 73.2484 23.0983 73.0384 22.445C72.8518 21.7917 72.4551 21.3717 71.8484 21.185C71.6151 21.0917 71.4051 20.9867 71.2184 20.87C71.0318 20.7533 70.9384 20.5667 70.9384 20.31C70.9384 19.9833 71.0668 19.6217 71.3234 19.225C71.5801 18.8283 71.9418 18.49 72.4084 18.21C72.8984 17.9067 73.4468 17.755 74.0534 17.755C74.8468 17.755 75.3951 18.035 75.6984 18.595C76.0018 19.1317 76.1534 19.8433 76.1534 20.73C76.1534 20.9867 76.1418 21.255 76.1184 21.535C76.0951 21.7917 76.0601 22.06 76.0134 22.34C76.6901 21.0333 77.5768 19.9367 78.6734 19.05C79.7934 18.14 81.0534 17.685 82.4534 17.685C83.8534 17.685 84.9501 18.1633 85.7434 19.12C86.5601 20.0533 86.9684 21.325 86.9684 22.935C86.9684 24.125 86.7818 25.2917 86.4084 26.435C86.0351 27.555 85.5101 28.57 84.8334 29.48C84.1568 30.39 83.3401 31.1133 82.3834 31.65C81.4501 32.1867 80.4001 32.455 79.2334 32.455C78.3934 32.455 77.6584 32.3033 77.0284 32C76.3984 31.72 75.8501 31.3467 75.3834 30.88C75.2901 31.4867 75.1968 32.2217 75.1034 33.085C75.0334 33.9483 74.9984 34.7533 74.9984 35.5C74.9984 36.3633 75.0918 37.04 75.2784 37.53C75.4884 38.02 75.8851 38.3933 76.4684 38.65C76.7251 38.7667 76.8534 38.9533 76.8534 39.21C76.8534 39.3967 76.7601 39.6883 76.5734 40.085C76.3868 40.4817 76.0718 40.8433 75.6284 41.17C75.2084 41.4967 74.6018 41.66 73.8084 41.66ZM80.0384 28.675C81.3684 28.675 82.3951 28.255 83.1184 27.415C83.8418 26.575 84.2034 25.6067 84.2034 24.51C84.2034 23.5533 83.9468 22.8183 83.4334 22.305C82.9201 21.7683 82.2318 21.5 81.3684 21.5C80.4818 21.5 79.7001 21.7683 79.0234 22.305C78.3468 22.8183 77.7634 23.495 77.2734 24.335C76.8068 25.175 76.4218 26.0733 76.1184 27.03C77.2851 28.1267 78.5918 28.675 80.0384 28.675ZM93.9903 32.455C92.5903 32.455 91.4586 32.0233 90.5953 31.16C89.7553 30.2733 89.3353 29.0133 89.3353 27.38C89.3353 26.2133 89.557 25.0583 90.0003 23.915C90.467 22.7483 91.132 21.6983 91.9953 20.765C92.8586 19.8317 93.897 19.085 95.1103 18.525C96.3236 17.965 97.6886 17.685 99.2053 17.685C100.605 17.685 101.795 17.93 102.775 18.42C103.779 18.8867 104.28 19.5283 104.28 20.345C104.28 20.555 104.257 20.835 104.21 21.185C104.164 21.5117 104.105 21.78 104.035 21.99C103.965 22.1767 103.86 22.3517 103.72 22.515C103.604 22.655 103.44 22.725 103.23 22.725C103.137 22.725 102.962 22.69 102.705 22.62C102.612 23.11 102.542 23.5883 102.495 24.055C102.449 24.5217 102.425 24.9883 102.425 25.455C102.425 26.3417 102.554 27.135 102.81 27.835C103.09 28.5117 103.627 28.9317 104.42 29.095C104.63 29.1417 104.794 29.2117 104.91 29.305C105.05 29.3983 105.12 29.5967 105.12 29.9C105.12 30.1567 105.05 30.4833 104.91 30.88C104.794 31.2767 104.549 31.6383 104.175 31.965C103.825 32.2683 103.312 32.42 102.635 32.42C101.725 32.42 101.025 32.0933 100.535 31.44C100.045 30.7633 99.8003 29.8067 99.8003 28.57C99.1703 29.7133 98.3653 30.6467 97.3853 31.37C96.4286 32.0933 95.297 32.455 93.9903 32.455ZM95.1103 28.815C96.0436 28.815 96.8603 28.5233 97.5603 27.94C98.2836 27.3567 98.8436 26.6217 99.2403 25.735C99.497 25.175 99.6953 24.5683 99.8353 23.915C99.9753 23.2383 100.069 22.5733 100.115 21.92C99.7186 21.7333 99.2636 21.5817 98.7503 21.465C98.237 21.3483 97.7003 21.29 97.1403 21.29C95.717 21.29 94.5386 21.71 93.6053 22.55C92.6953 23.39 92.2403 24.44 92.2403 25.7C92.2403 26.6333 92.497 27.3917 93.0103 27.975C93.5236 28.535 94.2236 28.815 95.1103 28.815ZM109.492 41.66C108.792 41.66 108.244 41.4617 107.847 41.065C107.45 40.6917 107.252 40.0033 107.252 39C107.252 38.3233 107.322 37.4717 107.462 36.445C107.625 35.4183 107.812 34.3333 108.022 33.19C108.185 32.28 108.337 31.3233 108.477 30.32C108.64 29.3167 108.769 28.3367 108.862 27.38C108.979 26.4 109.037 25.525 109.037 24.755C109.037 23.8683 108.932 23.0983 108.722 22.445C108.535 21.7917 108.139 21.3717 107.532 21.185C107.299 21.0917 107.089 20.9867 106.902 20.87C106.715 20.7533 106.622 20.5667 106.622 20.31C106.622 19.9833 106.75 19.6217 107.007 19.225C107.264 18.8283 107.625 18.49 108.092 18.21C108.582 17.9067 109.13 17.755 109.737 17.755C110.53 17.755 111.079 18.035 111.382 18.595C111.685 19.1317 111.837 19.8433 111.837 20.73C111.837 20.9867 111.825 21.255 111.802 21.535C111.779 21.7917 111.744 22.06 111.697 22.34C112.374 21.0333 113.26 19.9367 114.357 19.05C115.477 18.14 116.737 17.685 118.137 17.685C119.537 17.685 120.634 18.1633 121.427 19.12C122.244 20.0533 122.652 21.325 122.652 22.935C122.652 24.125 122.465 25.2917 122.092 26.435C121.719 27.555 121.194 28.57 120.517 29.48C119.84 30.39 119.024 31.1133 118.067 31.65C117.134 32.1867 116.084 32.455 114.917 32.455C114.077 32.455 113.342 32.3033 112.712 32C112.082 31.72 111.534 31.3467 111.067 30.88C110.974 31.4867 110.88 32.2217 110.787 33.085C110.717 33.9483 110.682 34.7533 110.682 35.5C110.682 36.3633 110.775 37.04 110.962 37.53C111.172 38.02 111.569 38.3933 112.152 38.65C112.409 38.7667 112.537 38.9533 112.537 39.21C112.537 39.3967 112.444 39.6883 112.257 40.085C112.07 40.4817 111.755 40.8433 111.312 41.17C110.892 41.4967 110.285 41.66 109.492 41.66ZM115.722 28.675C117.052 28.675 118.079 28.255 118.802 27.415C119.525 26.575 119.887 25.6067 119.887 24.51C119.887 23.5533 119.63 22.8183 119.117 22.305C118.604 21.7683 117.915 21.5 117.052 21.5C116.165 21.5 115.384 21.7683 114.707 22.305C114.03 22.8183 113.447 23.495 112.957 24.335C112.49 25.175 112.105 26.0733 111.802 27.03C112.969 28.1267 114.275 28.675 115.722 28.675ZM129.674 32.455C128.274 32.455 127.142 32.0233 126.279 31.16C125.439 30.2733 125.019 29.0133 125.019 27.38C125.019 26.2133 125.241 25.0583 125.684 23.915C126.151 22.7483 126.816 21.6983 127.679 20.765C128.542 19.8317 129.581 19.085 130.794 18.525C132.007 17.965 133.372 17.685 134.889 17.685C136.289 17.685 137.479 17.93 138.459 18.42C139.462 18.8867 139.964 19.5283 139.964 20.345C139.964 20.555 139.941 20.835 139.894 21.185C139.847 21.5117 139.789 21.78 139.719 21.99C139.649 22.1767 139.544 22.3517 139.404 22.515C139.287 22.655 139.124 22.725 138.914 22.725C138.821 22.725 138.646 22.69 138.389 22.62C138.296 23.11 138.226 23.5883 138.179 24.055C138.132 24.5217 138.109 24.9883 138.109 25.455C138.109 26.3417 138.237 27.135 138.494 27.835C138.774 28.5117 139.311 28.9317 140.104 29.095C140.314 29.1417 140.477 29.2117 140.594 29.305C140.734 29.3983 140.804 29.5967 140.804 29.9C140.804 30.1567 140.734 30.4833 140.594 30.88C140.477 31.2767 140.232 31.6383 139.859 31.965C139.509 32.2683 138.996 32.42 138.319 32.42C137.409 32.42 136.709 32.0933 136.219 31.44C135.729 30.7633 135.484 29.8067 135.484 28.57C134.854 29.7133 134.049 30.6467 133.069 31.37C132.112 32.0933 130.981 32.455 129.674 32.455ZM130.794 28.815C131.727 28.815 132.544 28.5233 133.244 27.94C133.967 27.3567 134.527 26.6217 134.924 25.735C135.181 25.175 135.379 24.5683 135.519 23.915C135.659 23.2383 135.752 22.5733 135.799 21.92C135.402 21.7333 134.947 21.5817 134.434 21.465C133.921 21.3483 133.384 21.29 132.824 21.29C131.401 21.29 130.222 21.71 129.289 22.55C128.379 23.39 127.924 24.44 127.924 25.7C127.924 26.6333 128.181 27.3917 128.694 27.975C129.207 28.535 129.907 28.815 130.794 28.815ZM144.931 32.385C144.091 32.385 143.717 32.105 143.811 31.545C144.067 30.5417 144.277 29.5267 144.441 28.5C144.627 27.45 144.721 26.4467 144.721 25.49C144.721 24.2533 144.639 23.355 144.476 22.795C144.336 22.2117 144.137 21.815 143.881 21.605C143.624 21.3717 143.309 21.1967 142.936 21.08C142.772 21.01 142.621 20.9167 142.481 20.8C142.364 20.6833 142.306 20.52 142.306 20.31C142.306 19.9833 142.434 19.6217 142.691 19.225C142.947 18.8283 143.309 18.49 143.776 18.21C144.266 17.9067 144.814 17.755 145.421 17.755C146.214 17.755 146.762 18.035 147.066 18.595C147.369 19.1317 147.521 19.8433 147.521 20.73C147.521 21.3133 147.462 21.9667 147.346 22.69C147.229 23.4133 147.112 24.0667 146.996 24.65L147.101 24.685C147.567 23.4483 148.127 22.305 148.781 21.255C149.457 20.1817 150.239 19.3183 151.126 18.665C152.012 18.0117 153.039 17.685 154.206 17.685C155.442 17.685 156.387 18.0583 157.041 18.805C157.694 19.5517 158.021 20.485 158.021 21.605C158.021 22.0717 157.962 22.515 157.846 22.935C157.752 23.355 157.647 23.7633 157.531 24.16C157.414 24.5333 157.309 24.9183 157.216 25.315C157.146 25.7117 157.111 26.1083 157.111 26.505C157.111 27.835 157.741 28.7333 159.001 29.2C159.327 29.34 159.491 29.55 159.491 29.83C159.491 30.04 159.421 30.3433 159.281 30.74C159.141 31.1367 158.884 31.51 158.511 31.86C158.137 32.1867 157.589 32.35 156.866 32.35C155.932 32.35 155.209 32.0233 154.696 31.37C154.182 30.6933 153.926 29.8417 153.926 28.815C153.926 28.2317 153.984 27.6483 154.101 27.065C154.241 26.4583 154.381 25.8983 154.521 25.385C154.614 24.9883 154.696 24.6033 154.766 24.23C154.859 23.8333 154.906 23.4833 154.906 23.18C154.906 22.1067 154.346 21.57 153.226 21.57C152.269 21.57 151.429 21.9317 150.706 22.655C149.982 23.355 149.364 24.2417 148.851 25.315C148.337 26.3883 147.917 27.4733 147.591 28.57V29.41C147.591 30.2733 147.346 30.985 146.856 31.545C146.389 32.105 145.747 32.385 144.931 32.385Z" fill="white"/>
<path d="M97.54 59.455C95.3233 59.455 93.6783 59.105 92.605 58.405C91.555 57.6817 91.03 56.34 91.03 54.38C91.03 53.9833 91.0533 53.505 91.1 52.945C91.17 52.385 91.2633 51.7083 91.38 50.915C91.5667 49.7717 91.7067 48.7567 91.8 47.87C91.8933 46.96 91.94 45.9683 91.94 44.895C91.94 44.195 91.9167 43.5183 91.87 42.865C91.8467 42.2117 91.7883 41.5933 91.695 41.01C91.345 41.08 91.1117 41.115 90.995 41.115C90.8083 41.115 90.68 41.08 90.61 41.01C90.54 40.9167 90.505 40.7533 90.505 40.52C90.505 40.03 90.5633 39.5517 90.68 39.085C90.7967 38.595 90.96 38.1983 91.17 37.895C91.5667 37.335 92.1733 37.0083 92.99 36.915C93.62 36.845 94.39 36.775 95.3 36.705C96.2333 36.635 97.1783 36.5883 98.135 36.565C99.115 36.5183 99.99 36.495 100.76 36.495C102.907 36.495 104.178 36.5417 104.575 36.635C105.182 36.7283 105.485 37.055 105.485 37.615C105.485 38.315 105.24 38.9567 104.75 39.54C104.493 39.89 104.237 40.1467 103.98 40.31C103.723 40.45 103.362 40.5083 102.895 40.485C101.868 40.415 100.97 40.3683 100.2 40.345C99.43 40.3217 98.8933 40.31 98.59 40.31C98.0533 40.31 97.4933 40.3217 96.91 40.345C96.35 40.3683 95.7783 40.4033 95.195 40.45C95.195 41.2667 95.16 42.1417 95.09 43.075C95.02 44.0083 94.9267 44.9883 94.81 46.015C95.8833 45.945 97.0967 45.8983 98.45 45.875C99.8033 45.8283 101.005 45.805 102.055 45.805C102.522 45.805 102.837 45.8517 103 45.945C103.187 46.0383 103.28 46.2833 103.28 46.68C103.28 47.0533 103.175 47.4733 102.965 47.94C102.778 48.3833 102.522 48.7683 102.195 49.095C102.055 49.235 101.903 49.3517 101.74 49.445C101.577 49.515 101.355 49.5383 101.075 49.515C100.072 49.4683 98.9283 49.4333 97.645 49.41C96.385 49.3867 95.2767 49.3867 94.32 49.41C94.2267 49.9467 94.1567 50.4367 94.11 50.88C94.0633 51.3233 94.04 51.72 94.04 52.07C94.04 53.3533 94.3667 54.2517 95.02 54.765C95.6733 55.2783 96.7467 55.535 98.24 55.535C99.15 55.535 100.025 55.4533 100.865 55.29C101.728 55.1267 102.603 54.8233 103.49 54.38C103.817 54.1933 104.062 54.1 104.225 54.1C104.482 54.1 104.727 54.2867 104.96 54.66C105.217 55.01 105.345 55.395 105.345 55.815C105.345 56.3283 105.147 56.8183 104.75 57.285C104.377 57.7283 103.875 58.1133 103.245 58.44C102.522 58.7667 101.658 59.0117 100.655 59.175C99.6517 59.3617 98.6133 59.455 97.54 59.455ZM109.619 59.385C108.779 59.385 108.406 59.105 108.499 58.545C108.756 57.5417 108.966 56.5267 109.129 55.5C109.316 54.45 109.409 53.4467 109.409 52.49C109.409 51.2533 109.327 50.355 109.164 49.795C109.024 49.2117 108.826 48.815 108.569 48.605C108.312 48.3717 107.997 48.1967 107.624 48.08C107.461 48.01 107.309 47.9167 107.169 47.8C107.052 47.6833 106.994 47.52 106.994 47.31C106.994 46.9833 107.122 46.6217 107.379 46.225C107.636 45.8283 107.997 45.49 108.464 45.21C108.954 44.9067 109.502 44.755 110.109 44.755C110.902 44.755 111.451 45.035 111.754 45.595C112.057 46.1317 112.209 46.8433 112.209 47.73C112.209 48.3133 112.151 48.9667 112.034 49.69C111.917 50.4133 111.801 51.0667 111.684 51.65L111.789 51.685C112.256 50.4483 112.816 49.305 113.469 48.255C114.146 47.1817 114.927 46.3183 115.814 45.665C116.701 45.0117 117.727 44.685 118.894 44.685C120.131 44.685 121.076 45.0583 121.729 45.805C122.382 46.5517 122.709 47.485 122.709 48.605C122.709 49.0717 122.651 49.515 122.534 49.935C122.441 50.355 122.336 50.7633 122.219 51.16C122.102 51.5333 121.997 51.9183 121.904 52.315C121.834 52.7117 121.799 53.1083 121.799 53.505C121.799 54.835 122.429 55.7333 123.689 56.2C124.016 56.34 124.179 56.55 124.179 56.83C124.179 57.04 124.109 57.3433 123.969 57.74C123.829 58.1367 123.572 58.51 123.199 58.86C122.826 59.1867 122.277 59.35 121.554 59.35C120.621 59.35 119.897 59.0233 119.384 58.37C118.871 57.6933 118.614 56.8417 118.614 55.815C118.614 55.2317 118.672 54.6483 118.789 54.065C118.929 53.4583 119.069 52.8983 119.209 52.385C119.302 51.9883 119.384 51.6033 119.454 51.23C119.547 50.8333 119.594 50.4833 119.594 50.18C119.594 49.1067 119.034 48.57 117.914 48.57C116.957 48.57 116.117 48.9317 115.394 49.655C114.671 50.355 114.052 51.2417 113.539 52.315C113.026 53.3883 112.606 54.4733 112.279 55.57V56.41C112.279 57.2733 112.034 57.985 111.544 58.545C111.077 59.105 110.436 59.385 109.619 59.385ZM130.764 59.455C129.364 59.455 128.232 59.0233 127.369 58.16C126.529 57.2733 126.109 56.0133 126.109 54.38C126.109 53.2133 126.33 52.0583 126.774 50.915C127.24 49.7483 127.905 48.6983 128.769 47.765C129.632 46.8317 130.67 46.085 131.884 45.525C133.097 44.965 134.462 44.685 135.979 44.685C137.379 44.685 138.569 44.93 139.549 45.42C140.552 45.8867 141.054 46.5283 141.054 47.345C141.054 47.555 141.03 47.835 140.984 48.185C140.937 48.5117 140.879 48.78 140.809 48.99C140.739 49.1767 140.634 49.3517 140.494 49.515C140.377 49.655 140.214 49.725 140.004 49.725C139.91 49.725 139.735 49.69 139.479 49.62C139.385 50.11 139.315 50.5883 139.269 51.055C139.222 51.5217 139.199 51.9883 139.199 52.455C139.199 53.3417 139.327 54.135 139.584 54.835C139.864 55.5117 140.4 55.9317 141.194 56.095C141.404 56.1417 141.567 56.2117 141.684 56.305C141.824 56.3983 141.894 56.5967 141.894 56.9C141.894 57.1567 141.824 57.4833 141.684 57.88C141.567 58.2767 141.322 58.6383 140.949 58.965C140.599 59.2683 140.085 59.42 139.409 59.42C138.499 59.42 137.799 59.0933 137.309 58.44C136.819 57.7633 136.574 56.8067 136.574 55.57C135.944 56.7133 135.139 57.6467 134.159 58.37C133.202 59.0933 132.07 59.455 130.764 59.455ZM131.884 55.815C132.817 55.815 133.634 55.5233 134.334 54.94C135.057 54.3567 135.617 53.6217 136.014 52.735C136.27 52.175 136.469 51.5683 136.609 50.915C136.749 50.2383 136.842 49.5733 136.889 48.92C136.492 48.7333 136.037 48.5817 135.524 48.465C135.01 48.3483 134.474 48.29 133.914 48.29C132.49 48.29 131.312 48.71 130.379 49.55C129.469 50.39 129.014 51.44 129.014 52.7C129.014 53.6333 129.27 54.3917 129.784 54.975C130.297 55.535 130.997 55.815 131.884 55.815ZM145.39 59.385C145.134 59.385 144.889 59.3033 144.655 59.14C144.422 59 144.329 58.8017 144.375 58.545C144.725 56.6783 145.017 54.7883 145.25 52.875C145.507 50.9383 145.635 48.99 145.635 47.03C145.635 45.3033 145.577 43.74 145.46 42.34C145.344 40.94 144.97 39.5983 144.34 38.315C144.224 38.0583 144.13 37.8367 144.06 37.65C143.99 37.4633 143.955 37.2883 143.955 37.125C143.955 36.6817 144.212 36.25 144.725 35.83C145.239 35.41 145.787 35.2 146.37 35.2C147.21 35.2 147.782 35.7133 148.085 36.74C148.389 37.7667 148.54 39.2833 148.54 41.29C148.54 43.6933 148.4 45.7933 148.12 47.59C147.84 49.3633 147.595 50.7167 147.385 51.65L147.525 51.72C147.992 50.5767 148.587 49.48 149.31 48.43C150.034 47.3567 150.862 46.47 151.795 45.77C152.752 45.07 153.79 44.72 154.91 44.72C156.007 44.72 156.847 45.0467 157.43 45.7C158.037 46.3533 158.34 47.135 158.34 48.045C158.34 49.1183 157.955 50.075 157.185 50.915C156.415 51.755 155.412 52.455 154.175 53.015C154.479 53.8083 154.91 54.4383 155.47 54.905C156.03 55.3483 156.742 55.57 157.605 55.57C157.885 55.57 158.119 55.5467 158.305 55.5C158.609 55.43 158.76 55.7217 158.76 56.375C158.76 56.7483 158.69 57.1683 158.55 57.635C158.41 58.1017 158.13 58.51 157.71 58.86C157.314 59.1867 156.707 59.35 155.89 59.35C154.794 59.35 153.895 59.035 153.195 58.405C152.519 57.7517 151.982 56.9583 151.585 56.025C151.212 55.0683 150.92 54.1233 150.71 53.19C150.524 52.3267 150.815 51.8717 151.585 51.825C152.402 51.7317 153.09 51.4867 153.65 51.09C154.21 50.6933 154.49 50.1683 154.49 49.515C154.49 48.7683 154.129 48.395 153.405 48.395C152.939 48.395 152.46 48.57 151.97 48.92C151.504 49.2467 151.06 49.6433 150.64 50.11C150.244 50.5767 149.917 51.0317 149.66 51.475C149.31 52.0817 149.007 52.6767 148.75 53.26C148.494 53.8433 148.284 54.4267 148.12 55.01V56.41C148.12 57.2733 147.864 57.985 147.35 58.545C146.86 59.105 146.207 59.385 145.39 59.385Z" fill="#DB0707"/>
</svg>
